<svg data-v-0dd9719b="" version="1.0" xmlns="http://www.w3.org/2000/svg" xmlns:xlink="http://www.w3.org/1999/xlink" width="100%" height="100%" viewBox="0 0 340.000000 250.000000" preserveAspectRatio="xMidYMid meet" color-interpolation-filters="sRGB" style="margin: auto;"> <rect data-v-0dd9719b="" x="0" y="0" width="100%" height="100%" fill="#fff" fill-opacity="1" class="background"></rect> <rect data-v-0dd9719b="" x="0" y="0" width="100%" height="100%" fill="url(#watermark)" fill-opacity="1" class="watermarklayer"></rect> <g data-v-0dd9719b="" fill="#333" class="icon-text-wrapper icon-svg-group iconsvg" transform="translate(46.79499816894531,95.00180053710938)"><g class="iconsvg-imagesvg" transform="translate(0,0)"><g><rect fill="#333" fill-opacity="0" stroke-width="2" x="0" y="0" width="60" height="59.996400215987045" class="image-rect"></rect> <svg x="0" y="0" width="60" height="59.996400215987045" filtersec="colorsb8682293423" class="image-svg-svg primary" style="overflow: visible;"><svg xmlns="http://www.w3.org/2000/svg" viewBox="-0.005915164947509766 -0.0032501220703125 100.00916290283203 100.00305938720703"><path d="M97.79 58.53L87.06 44.81a58.94 58.94 0 0 1-5-7.79L72.32 42l-9.14 27.73 4.92 9.75a60.75 60.75 0 0 1 8.64-3.3l16.78-4.67c6.48-1.81 8.48-7.65 4.27-12.98z" fill="#00d495"></path><path d="M30.27 63.18l-9.76 4.92a58.55 58.55 0 0 1 3.31 8.64l4.67 16.78c1.81 6.52 7.65 8.45 13 4.27l13.7-10.73a58.94 58.94 0 0 1 7.79-5l-4.93-9.75z" fill="#7fe000"></path><path d="M36.82 30.27l-4.93-9.76a57.37 57.37 0 0 1-8.63 3.31L6.48 28.49C0 30.3-2 36.14 2.2 41.47l10.74 13.72a58.94 58.94 0 0 1 5 7.79l9.75-4.93z" fill="#00a2ff"></path><path d="M69.73 36.82l9.75-4.92a60 60 0 0 1-3.3-8.64L71.51 6.48C69.7 0 63.85-2 58.53 2.21L44.81 12.94a58.94 58.94 0 0 1-7.79 5L42 27.68z" fill="#00c0d9"></path></svg></svg> <!----></g></g> <g transform="translate(67,11.638198852539062)"><g data-gra="path-name" fill-rule="" class="tp-name iconsvg-namesvg"><g transform="scale(1)"><g><path d="M13.1-32.15L0.79-32.15 0.79-36.32 30.17-36.32 30.17-32.15 17.86-32.15 17.86 0 13.1 0 13.1-32.15ZM52.19-8.34L52.19-8.34 56.56-8.34Q55.77-3.77 51.8-0.99L51.8-0.99Q49.61 0.4 44.65 0.4L44.65 0.4Q33.34 0 32.75-12.5L32.75-12.5Q33.14-26.99 45.45-27.39L45.45-27.39Q56.76-27.19 56.96-11.71L56.96-11.71 37.51-11.71Q37.51-2.98 45.25-2.98L45.25-2.98Q50.8-3.37 52.19-8.34ZM37.51-15.28L37.51-15.28 52.39-15.28Q51.8-23.22 44.85-23.22L44.85-23.22Q38.3-22.62 37.51-15.28ZM83.15-17.46L83.15-17.46 78.79-17.46Q78.19-23.22 72.64-23.22L72.64-23.22Q65.49-22.82 65.09-13.3L65.09-13.3Q65.09-2.98 72.44-2.98L72.44-2.98Q77.79-3.37 78.79-9.33L78.79-9.33 83.15-9.33Q81.57 0.2 72.44 0.4L72.44 0.4Q60.93 0 60.53-12.5L60.53-12.5Q60.93-26.99 73.23-27.39L73.23-27.39Q81.96-27.19 83.15-17.46ZM109.15-26.59L99.03-16.67 109.75 0 103.99 0 95.66-13.5 92.08-9.92 92.08 0 87.72 0 87.72-36.32 92.08-36.32 92.08-15.28 103.59-26.59 109.15-26.59ZM133.96-17.46L133.96-17.46 129.59-17.46Q129-23.22 123.44-23.22L123.44-23.22Q116.3-22.82 115.9-13.3L115.9-13.3Q115.9-2.98 123.24-2.98L123.24-2.98Q128.6-3.37 129.59-9.33L129.59-9.33 133.96-9.33Q132.37 0.2 123.24 0.4L123.24 0.4Q111.73 0 111.33-12.5L111.33-12.5Q111.73-26.99 124.04-27.39L124.04-27.39Q132.77-27.19 133.96-17.46ZM142.49-18.46L142.49-18.46 138.32-18.46Q138.52-27.39 149.24-27.39L149.24-27.39Q158.77-26.99 158.96-19.85L158.96-19.85 158.96-4.56Q158.96-2.98 160.55-2.98L160.55-2.98Q160.75-2.98 161.15-2.98L161.15-2.98Q161.74-3.18 162.14-3.18L162.14-3.18 162.14 0Q161.74 0 161.15 0L161.15 0Q160.15 0.2 159.56 0.2L159.56 0.2Q154.8 0.2 154.99-3.57L154.99-3.57Q151.03 0.4 145.27 0.4L145.27 0.4Q137.33 0 136.93-6.95L136.93-6.95Q137.13-14.09 145.07-15.28L145.07-15.28 152.41-16.07Q154.8-16.47 154.8-19.25L154.8-19.25Q154.8-23.62 148.45-23.62L148.45-23.62Q142.89-23.62 142.49-18.46ZM154.6-9.13L154.6-9.13 154.6-13.5Q153.01-12.5 147.25-11.71L147.25-11.71Q141.7-11.31 141.7-7.54L141.7-7.54Q141.7-2.98 146.26-2.98L146.26-2.98Q154-3.57 154.6-9.13ZM171.66-15.48L171.66-15.48 171.66 0 167.1 0 167.1-26.59 171.47-26.59 171.47-22.03Q174.44-27.39 179.01-27.39L179.01-27.39Q179.4-27.39 179.8-27.19L179.8-27.19Q180-27.19 180.2-27.19L180.2-27.19 180.2-22.43 178.41-22.43Q172.06-22.03 171.66-15.48Z" transform="translate(-0.7899999618530273, 36.31999969482422)"></path></g> <!----> <!----> <!----> <!----> <!----> <!----> <!----></g></g> <!----></g></g><defs v-gra="od"></defs></svg>